name Run_300 02_newCOP3_v24.mot
datacolumns 19
datarows 64
range 0.01 0.0415
DataType=double
version=3
OpenSimVersion=4.3-2021-08-27-4bc7ad9
endheader
time	R_ground_force_vx	R_ground_force_vy	R_ground_force_vz	R_ground_force_px	R_ground_force_py	R_ground_force_pz	L_ground_force_vx	L_ground_force_vy	L_ground_force_vz	L_ground_force_px	L_ground_force_py	L_ground_force_pz	R_ground_torque_x	R_ground_torque_y	R_ground_torque_z	L_ground_torque_x	L_ground_torque_y	L_ground_torque_z
0.01	12.211396	27.863642	19.621677	0.855702	0	-0.12179	0	0	0	0	0	0	0	-2.455707	0	0	0	0
0.0105	11.99252	27.28491	19.321796	0.855734	0	-0.121421	0	0	0	0	0	0	0	-2.373875	0	0	0	0
0.011	11.764386	26.683569	19.011318	0.855774	0	-0.121023	0	0	0	0	0	0	0	-2.292871	0	0	0	0
0.0115	11.527631	26.061678	18.690796	0.855826	0	-0.120597	0	0	0	0	0	0	0	-2.212739	0	0	0	0
0.012	11.282898	25.421303	18.360813	0.855891	0	-0.12014	0	0	0	0	0	0	0	-2.133524	0	0	0	0
0.0125	11.030836	24.764511	18.021975	0.855971	0	-0.119653	0	0	0	0	0	0	0	-2.055269	0	0	0	0
0.013	10.772099	24.093367	17.674917	0.85607	0	-0.119133	0	0	0	0	0	0	0	-1.978016	0	0	0	0
0.0135	10.507348	23.409933	17.32029	0.856189	0	-0.118581	0	0	0	0	0	0	0	-1.901807	0	0	0	0
0.014	10.237252	22.716255	16.958763	0.856331	0	-0.117995	0	0	0	0	0	0	0	-1.826682	0	0	0	0
0.0145	9.962486	22.01436	16.591024	0.856499	0	-0.117374	0	0	0	0	0	0	0	-1.752682	0	0	0	0
0.015	9.683731	21.306252	16.217772	0.856698	0	-0.116715	0	0	0	0	0	0	0	-1.679844	0	0	0	0
0.0155	9.401669999999999	20.593895	15.839711	0.856928	0	-0.116018	0	0	0	0	0	0	0	-1.608208	0	0	0	0
0.016	9.116989	19.879221	15.457562	0.857195	0	-0.115281	0	0	0	0	0	0	0	-1.537809	0	0	0	0
0.0165	8.830374000000001	19.164108	15.072045	0.857503	0	-0.114501	0	0	0	0	0	0	0	-1.468683	0	0	0	0
0.017	8.542505	18.450382	14.683886	0.857853	0	-0.113675	0	0	0	0	0	0	0	-1.400866	0	0	0	0
0.0175	8.254063	17.739811	14.29381	0.858252	0	-0.112802	0	0	0	0	0	0	0	-1.334388	0	0	0	0
0.018	7.965713	17.034096	13.90254	0.858703	0	-0.111878	0	0	0	0	0	0	0	-1.269284	0	0	0	0
0.0185	7.678114	16.334866	13.510799	0.8592109999999999	0	-0.1109	0	0	0	0	0	0	0	-1.205583	0	0	0	0
0.019	7.391911	15.643677	13.119301	0.85978	0	-0.109863	0	0	0	0	0	0	0	-1.143315	0	0	0	0
0.0195	7.107729	14.962004	12.72875	0.860416	0	-0.108764	0	0	0	0	0	0	0	-1.082508	0	0	0	0
0.02	6.826175	14.291239	12.339845	0.861124	0	-0.107596	0	0	0	0	0	0	0	-1.023188	0	0	0	0
0.0205	6.547832	13.632689	11.953266	0.861909	0	-0.106355	0	0	0	0	0	0	0	-0.96538	0	0	0	0
0.021	6.273259	12.987574	11.569683	0.862779	0	-0.105035	0	0	0	0	0	0	0	-0.9091089999999999	0	0	0	0
0.0215	6.002984	12.35702	11.189747	0.86374	0	-0.103627	0	0	0	0	0	0	0	-0.854395	0	0	0	0
0.022	5.737505	11.742064	10.814091	0.8648	0	-0.102123	0	0	0	0	0	0	0	-0.80126	0	0	0	0
0.0225	5.477286	11.143651	10.443327	0.865967	0	-0.100515	0	0	0	0	0	0	0	-0.749722	0	0	0	0
0.023	5.222755	10.562632	10.078043	0.86725	0	-0.098792	0	0	0	0	0	0	0	-0.6997989999999999	0	0	0	0
0.0235	0	0	0	0	0	0	0	0	0	0	0	0	0	0	0	0	0	0
0.024	0	0	0	0	0	0	0	0	0	0	0	0	0	0	0	0	0	0
0.0245	0	0	0	0	0	0	0	0	0	0	0	0	0	0	0	0	0	0
0.025	0	0	0	0	0	0	0	0	0	0	0	0	0	0	0	0	0	0
0.0255	0	0	0	0	0	0	0	0	0	0	0	0	0	0	0	0	0	0
0.026	0	0	0	0	0	0	0	0	0	0	0	0	0	0	0	0	0	0
0.0265	0	0	0	0	0	0	0	0	0	0	0	0	0	0	0	0	0	0
0.027	0	0	0	0	0	0	0	0	0	0	0	0	0	0	0	0	0	0
0.0275	0	0	0	0	0	0	0	0	0	0	0	0	0	0	0	0	0	0
0.028	0	0	0	0	0	0	0	0	0	0	0	0	0	0	0	0	0	0
0.0285	0	0	0	0	0	0	0	0	0	0	0	0	0	0	0	0	0	0
0.029	0	0	0	0	0	0	0	0	0	0	0	0	0	0	0	0	0	0
0.0295	0	0	0	0	0	0	0	0	0	0	0	0	0	0	0	0	0	0
0.03	0	0	0	0	0	0	0	0	0	0	0	0	0	0	0	0	0	0
0.0305	0	0	0	0	0	0	0	0	0	0	0	0	0	0	0	0	0	0
0.031	0	0	0	0	0	0	0	0	0	0	0	0	0	0	0	0	0	0
0.0315	0	0	0	0	0	0	0	0	0	0	0	0	0	0	0	0	0	0
0.032	0	0	0	0	0	0	0	0	0	0	0	0	0	0	0	0	0	0
0.0325	0	0	0	0	0	0	0	0	0	0	0	0	0	0	0	0	0	0
0.033	0	0	0	0	0	0	0	0	0	0	0	0	0	0	0	0	0	0
0.0335	0	0	0	0	0	0	0	0	0	0	0	0	0	0	0	0	0	0
0.034	0	0	0	0	0	0	0	0	0	0	0	0	0	0	0	0	0	0
0.0345	0	0	0	0	0	0	0	0	0	0	0	0	0	0	0	0	0	0
0.035	0	0	0	0	0	0	0	0	0	0	0	0	0	0	0	0	0	0
0.0355	0	0	0	0	0	0	0	0	0	0	0	0	0	0	0	0	0	0
0.036	0	0	0	0	0	0	0	0	0	0	0	0	0	0	0	0	0	0
0.0365	0	0	0	0	0	0	0	0	0	0	0	0	0	0	0	0	0	0
0.037	0	0	0	0	0	0	0	0	0	0	0	0	0	0	0	0	0	0
0.0375	0	0	0	0	0	0	0	0	0	0	0	0	0	0	0	0	0	0
0.038	0	0	0	0	0	0	0	0	0	0	0	0	0	0	0	0	0	0
0.0385	0	0	0	0	0	0	0	0	0	0	0	0	0	0	0	0	0	0
0.039	0	0	0	0	0	0	0	0	0	0	0	0	0	0	0	0	0	0
0.0395	0	0	0	0	0	0	0	0	0	0	0	0	0	0	0	0	0	0
0.04	0	0	0	0	0	0	0	0	0	0	0	0	0	0	0	0	0	0
0.0405	0	0	0	0	0	0	0	0	0	0	0	0	0	0	0	0	0	0
0.041	0	0	0	0	0	0	0	0	0	0	0	0	0	0	0	0	0	0
0.0415	0	0	0	0	0	0	0	0	0	0	0	0	0	0	0	0	0	0
